<svg width="14" height="14" viewBox="0 0 14 14" fill="none" xmlns="http://www.w3.org/2000/svg">
<path d="M4.08203 4.08594H3.4987C3.18928 4.08594 2.89253 4.20885 2.67374 4.42765C2.45495 4.64644 2.33203 4.94318 2.33203 5.2526V10.5026C2.33203 10.812 2.45495 11.1088 2.67374 11.3276C2.89253 11.5464 3.18928 11.6693 3.4987 11.6693H8.7487C9.05812 11.6693 9.35486 11.5464 9.57366 11.3276C9.79245 11.1088 9.91536 10.812 9.91536 10.5026V9.91927" stroke="#004079" stroke-width="0.7" stroke-linecap="round" stroke-linejoin="round"/>
<path d="M11.8912 3.84131C12.121 3.61157 12.2501 3.29997 12.2501 2.97506C12.2501 2.65016 12.121 2.33856 11.8912 2.10881C11.6615 1.87907 11.3499 1.75 11.025 1.75C10.7001 1.75 10.3885 1.87907 10.1588 2.10881L5.25 7.00006V8.75006H7L11.8912 3.84131Z" stroke="#004079" stroke-width="0.7" stroke-linecap="round" stroke-linejoin="round"/>
<path d="M9.33203 2.91406L11.082 4.66406" stroke="#004079" stroke-width="0.7" stroke-linecap="round" stroke-linejoin="round"/>
</svg>
