<svg width="715" height="942" viewBox="0 0 715 942" fill="none" xmlns="http://www.w3.org/2000/svg">
<g opacity="0.64">
<path opacity="0.66" d="M-140.373 839.468L569.778 393.434C572.431 391.768 575.571 394.677 574.121 397.45L297.51 925.284C294.745 930.567 288.913 933.475 283.032 932.519L-135.21 864.87C-147.823 862.839 -151.194 846.265 -140.373 839.468Z" fill="url(#paint0_linear_694_3583)"/>
<path opacity="0.66" d="M571.142 395.402L-77.0659 1023.87C-87.5678 1034.05 -77.1775 1051.44 -63.2334 1047.02L287.448 935.842C290.93 934.742 293.838 932.304 295.535 929.069L574.066 397.577C575.03 395.72 572.648 393.944 571.142 395.402Z" fill="url(#paint1_linear_694_3583)"/>
<path d="M474.593 249.244C460.649 249.244 455.446 267.546 467.318 274.877L594.512 353.482C599.476 356.533 605.818 356.167 610.392 352.557L709.722 273.953C720.008 265.809 714.255 249.236 701.124 249.236H474.593V249.244Z" fill="url(#paint2_linear_694_3583)"/>
<path opacity="0.64" d="M564.28 382.087L-521.477 0.840423C-535.054 -3.9165 -545.994 12.6012 -536.313 23.2386L279.55 919.483C286.02 926.599 297.598 925.109 302.06 916.591L571.945 401.585C575.874 394.103 572.248 384.884 564.28 382.087Z" fill="url(#paint3_linear_694_3583)"/>
</g>
<defs>
<linearGradient id="paint0_linear_694_3583" x1="-146.866" y1="662.825" x2="574.489" y2="662.825" gradientUnits="userSpaceOnUse">
<stop stop-color="white"/>
<stop offset="0.092" stop-color="#F9FDFE"/>
<stop offset="0.2175" stop-color="#E7F8FB"/>
<stop offset="0.3624" stop-color="#CBF0F5"/>
<stop offset="0.5217" stop-color="#A2E5EE"/>
<stop offset="0.693" stop-color="#6FD7E4"/>
<stop offset="0.8713" stop-color="#31C6D9"/>
<stop offset="1" stop-color="#00B8D0"/>
</linearGradient>
<linearGradient id="paint1_linear_694_3583" x1="-81.358" y1="721.298" x2="574.284" y2="721.298" gradientUnits="userSpaceOnUse">
<stop stop-color="white"/>
<stop offset="0.092" stop-color="#F9FDFE"/>
<stop offset="0.2175" stop-color="#E7F8FB"/>
<stop offset="0.3624" stop-color="#CBF0F5"/>
<stop offset="0.5217" stop-color="#A2E5EE"/>
<stop offset="0.693" stop-color="#6FD7E4"/>
<stop offset="0.8713" stop-color="#31C6D9"/>
<stop offset="1" stop-color="#00B8D0"/>
</linearGradient>
<linearGradient id="paint2_linear_694_3583" x1="460.719" y1="302.395" x2="714.989" y2="302.395" gradientUnits="userSpaceOnUse">
<stop stop-color="white"/>
<stop offset="0.092" stop-color="#F9FDFE"/>
<stop offset="0.2175" stop-color="#E7F8FB"/>
<stop offset="0.3624" stop-color="#CBF0F5"/>
<stop offset="0.5217" stop-color="#A2E5EE"/>
<stop offset="0.693" stop-color="#6FD7E4"/>
<stop offset="0.8713" stop-color="#31C6D9"/>
<stop offset="1" stop-color="#00B8D0"/>
</linearGradient>
<linearGradient id="paint3_linear_694_3583" x1="-539.998" y1="462.008" x2="573.543" y2="462.008" gradientUnits="userSpaceOnUse">
<stop stop-color="white"/>
<stop offset="0.092" stop-color="#F9FDFE"/>
<stop offset="0.2175" stop-color="#E7F8FB"/>
<stop offset="0.3624" stop-color="#CBF0F5"/>
<stop offset="0.5217" stop-color="#A2E5EE"/>
<stop offset="0.693" stop-color="#6FD7E4"/>
<stop offset="0.8713" stop-color="#31C6D9"/>
<stop offset="1" stop-color="#00B8D0"/>
</linearGradient>
</defs>
</svg>
