<svg width="61" height="61" viewBox="0 0 61 61" fill="none" xmlns="http://www.w3.org/2000/svg">
<g clip-path="url(#clip0_3105_3306)">
<path d="M17.7933 45.7508C14.622 45.7508 11.5806 44.5458 9.33817 42.4008C7.09573 40.2559 5.83594 37.3467 5.83594 34.3133C5.83594 31.2799 7.09573 28.3707 9.33817 26.2257C11.5806 24.0808 14.622 22.8758 17.7933 22.8758C18.5423 19.539 20.7334 16.6067 23.8846 14.7239C25.445 13.7917 27.194 13.1451 29.032 12.8212C30.87 12.4973 32.7608 12.5024 34.5966 12.8362C36.4323 13.17 38.1771 13.8259 39.7312 14.7665C41.2853 15.7072 42.6183 16.9141 43.6542 18.3184C44.69 19.7227 45.4084 21.2968 45.7683 22.951C46.1282 24.6052 46.1225 26.3069 45.7517 27.9591H48.2933C50.6526 27.9591 52.9153 28.8964 54.5836 30.5646C56.2519 32.2329 57.1892 34.4956 57.1892 36.8549C57.1892 39.2143 56.2519 41.477 54.5836 43.1453C52.9153 44.8135 50.6526 45.7508 48.2933 45.7508H45.7517" stroke="#004079" stroke-width="1.5" stroke-linecap="round" stroke-linejoin="round"/>
<path d="M22.875 38.125L30.5 30.5L38.125 38.125" stroke="#004079" stroke-width="1.5" stroke-linecap="round" stroke-linejoin="round"/>
<path d="M30.5 30.5V53.375" stroke="#004079" stroke-width="1.5" stroke-linecap="round" stroke-linejoin="round"/>
</g>
<defs>
<clipPath id="clip0_3105_3306">
<rect width="61" height="61" fill="white"/>
</clipPath>
</defs>
</svg>
